<?xml version="1.0" standalone="no"?>
<!DOCTYPE svg PUBLIC "-//W3C//DTD SVG 20010904//EN"
 "http://www.w3.org/TR/2001/REC-SVG-20010904/DTD/svg10.dtd">
<svg version="1.0" xmlns="http://www.w3.org/2000/svg"
 width="1000.000000pt" height="1000.000000pt" viewBox="0 0 1000.000000 1000.000000"
 preserveAspectRatio="xMidYMid meet">
<metadata>
Created by potrace 1.16, written by Peter Selinger 2001-2019
</metadata>
<g transform="translate(0.000000,1000.000000) scale(0.100000,-0.100000)"
fill="currentColor" stroke="none">
<path d="M7095 7818 c-22 -11 -51 -30 -65 -43 -20 -18 -42 -24 -101 -28 -98
-8 -101 -10 -126 -60 -12 -23 -47 -73 -78 -112 -32 -38 -66 -89 -76 -113 -10
-24 -35 -63 -54 -86 -77 -95 -87 -134 -101 -400 -7 -131 -16 -242 -21 -247
-29 -27 -390 -120 -643 -164 -560 -99 -926 -209 -1275 -382 -38 -19 -59 -23
-87 -19 -26 4 -77 -5 -170 -29 -73 -20 -194 -49 -269 -65 -74 -15 -173 -40
-220 -53 -46 -14 -133 -40 -194 -58 -60 -18 -158 -54 -216 -81 -140 -64 -236
-87 -394 -97 -148 -8 -197 -25 -261 -86 -21 -20 -91 -68 -154 -105 -63 -37
-151 -90 -196 -117 l-81 -49 -154 -13 c-223 -19 -247 -9 -324 133 -27 51 -28
57 -13 68 45 35 48 101 9 237 -100 348 -341 595 -686 704 -289 91 -579 41
-849 -147 -184 -129 -277 -257 -283 -391 -4 -92 6 -120 55 -150 l33 -20 -5
-91 c-6 -95 7 -197 44 -349 25 -100 60 -151 128 -187 102 -53 142 -141 142
-313 0 -96 62 -134 165 -101 16 5 29 -5 62 -49 31 -40 49 -55 67 -55 21 0 25
-5 24 -30 -1 -39 14 -56 66 -69 44 -11 56 -27 56 -74 0 -55 43 -98 120 -120
19 -5 84 20 133 51 87 57 233 39 402 -51 76 -41 80 -45 83 -80 3 -33 12 -44
97 -112 213 -171 322 -318 439 -590 95 -219 260 -497 372 -627 53 -62 172
-164 238 -205 22 -14 115 -79 206 -143 269 -191 413 -261 650 -313 208 -46
959 -110 1440 -122 135 -3 364 -12 510 -20 603 -31 737 -30 1480 20 968 65
1203 108 1827 334 120 43 262 93 316 110 54 17 141 53 195 79 53 27 159 77
235 112 157 72 199 104 307 239 107 135 117 172 81 312 -25 97 -52 158 -169
374 l-97 180 -166 165 c-91 91 -205 215 -254 275 -325 402 -426 513 -650 710
-381 335 -829 890 -777 963 41 56 52 81 52 113 0 43 -32 89 -62 89 -17 0 -19
4 -13 30 14 62 -37 120 -107 120 -25 0 -29 3 -23 18 34 82 -7 139 -96 130 -43
-4 -45 -2 -24 26 41 54 8 99 -76 106 l-62 5 -17 70 c-10 39 -27 92 -40 118
-110 241 -163 612 -114 800 18 70 24 58 -66 117 -53 35 -71 36 -125 8z m-455
-1938 c43 0 49 -3 60 -30 30 -72 119 -121 223 -124 64 -2 69 -4 97 -37 100
-123 344 -584 409 -774 122 -360 247 -608 374 -742 33 -35 47 -57 40 -61 -6
-4 -91 -8 -188 -10 -195 -3 -257 -14 -540 -97 -82 -24 -223 -57 -312 -74
l-163 -30 -59 34 c-102 60 -263 134 -331 152 -152 42 -363 21 -635 -62 -449
-138 -628 -163 -940 -135 -243 22 -401 63 -574 148 -147 73 -197 111 -427 329
-177 168 -199 193 -171 193 7 0 37 7 66 15 51 16 52 16 45 50 -8 46 16 62 360
241 297 154 415 224 516 303 36 28 88 69 117 92 50 39 55 41 155 50 275 25
402 51 645 130 160 52 244 90 396 180 179 107 332 163 602 223 61 13 121 29
135 35 14 5 31 8 38 5 8 -2 35 -4 62 -4z"/>
</g>
</svg>

