<?xml version="1.0" standalone="no"?>
<!DOCTYPE svg PUBLIC "-//W3C//DTD SVG 20010904//EN"
 "http://www.w3.org/TR/2001/REC-SVG-20010904/DTD/svg10.dtd">
<svg version="1.0" xmlns="http://www.w3.org/2000/svg"
 width="1000.000000pt" height="1000.000000pt" viewBox="0 0 1000.000000 1000.000000"
 preserveAspectRatio="xMidYMid meet">
<metadata>
Created by potrace 1.16, written by Peter Selinger 2001-2019
</metadata>
<g transform="translate(0.000000,1000.000000) scale(0.100000,-0.100000)"
fill="currentColor" stroke="none">
<path d="M1710 6420 c-96 -10 -207 -19 -246 -19 -39 -1 -93 -5 -120 -10 -27
-5 -119 -6 -204 -2 -166 7 -321 -13 -415 -54 -148 -64 -172 -83 -129 -99 13
-5 7 -17 -31 -62 -34 -39 -45 -58 -37 -66 6 -6 8 -17 5 -24 -19 -51 79 -65
167 -25 191 86 289 99 369 50 28 -18 51 -33 51 -35 0 -9 -62 -34 -83 -34 -32
0 -47 -18 -47 -56 0 -56 23 -62 90 -26 32 18 81 36 109 42 78 15 156 56 178
93 37 61 87 70 330 57 211 -11 234 -14 448 -67 117 -30 227 -55 292 -68 65
-13 110 -68 156 -191 36 -92 108 -212 168 -278 47 -52 49 -58 70 -162 23 -119
70 -276 101 -338 26 -50 18 -87 -30 -150 -49 -65 -50 -65 -116 -5 -46 42 -56
57 -56 84 0 34 -9 48 -105 169 -53 68 -66 79 -130 105 -183 75 -281 71 -471
-21 -33 -16 -159 -140 -176 -173 -28 -57 -40 -183 -23 -248 41 -157 141 -280
255 -315 36 -11 82 -30 103 -42 22 -13 62 -24 99 -28 35 -3 87 -16 117 -29 63
-28 162 -53 212 -53 28 0 39 -5 50 -26 7 -14 26 -36 41 -49 18 -16 26 -29 22
-40 -11 -27 -204 -146 -289 -177 -88 -33 -67 -34 -265 12 -129 31 -276 36
-398 16 -149 -25 -167 -18 -300 124 -56 60 -149 145 -206 190 -171 132 -383
369 -428 478 -6 15 -12 93 -14 173 -2 103 -7 157 -18 183 -9 21 -18 86 -22
151 -7 120 -15 136 -55 115 -44 -24 -59 -87 -44 -187 10 -66 -6 -76 -67 -40
-71 42 -108 94 -204 289 -36 73 -104 104 -104 47 0 -25 47 -138 95 -232 34
-65 37 -87 12 -87 -7 1 -46 57 -87 126 -102 169 -107 176 -139 172 -19 -2 -27
-10 -29 -27 -5 -30 77 -198 129 -267 86 -113 34 -86 -127 67 -91 87 -106 98
-124 89 -11 -6 -20 -19 -20 -29 0 -25 153 -198 217 -245 59 -44 70 -70 25 -60
-77 17 -112 27 -161 45 -58 21 -101 19 -101 -6 0 -27 52 -52 264 -130 48 -18
92 -55 256 -219 98 -97 130 -138 226 -291 161 -256 245 -355 544 -641 88 -85
98 -92 145 -97 28 -3 79 -18 115 -32 99 -41 357 -112 509 -141 129 -24 148
-25 351 -19 320 9 467 22 613 55 223 49 285 54 496 39 300 -21 1055 -18 1276
4 155 16 207 18 372 9 235 -12 422 -3 753 39 473 59 778 135 1255 314 267 100
338 121 455 131 134 11 353 63 581 136 451 144 538 170 739 219 345 84 441
109 550 144 58 18 135 40 172 49 136 32 306 151 310 218 3 57 -2 92 -18 116
-14 21 -13 25 12 54 30 36 29 95 -3 173 -40 99 -239 129 -438 66 -101 -32
-237 -70 -365 -100 -123 -30 -419 -37 -785 -20 -434 21 -638 17 -889 -15 -364
-46 -416 -48 -673 -26 -523 46 -1135 51 -1366 11 -169 -30 -412 -110 -594
-197 -118 -57 -189 -68 -423 -68 l-205 1 -181 56 c-476 148 -641 262 -703 485
-44 158 -156 330 -400 613 -140 162 -217 253 -255 300 -10 12 -46 19 -137 28
-386 36 -578 38 -849 11z m7750 -1455 c0 -18 -171 -67 -191 -54 -28 17 14 38
96 47 44 5 83 10 88 11 4 0 7 -1 7 -4z m-477 -49 l28 -7 -31 -44 c-40 -58 -51
-63 -165 -75 -125 -13 -211 -26 -372 -56 -116 -22 -165 -25 -384 -27 -233 -2
-245 -1 -174 11 42 7 116 26 163 43 178 63 286 86 642 133 102 14 196 27 210
29 26 4 35 3 83 -7z m-1333 -251 c-91 -22 -208 -40 -315 -51 -104 -9 -251 -33
-380 -59 -233 -49 -317 -61 -516 -70 -114 -6 -277 1 -267 10 2 2 77 10 168 19
224 23 488 62 585 87 251 64 470 90 800 96 l70 2 -145 -34z"/>
</g>
</svg>

