<?xml version="1.0" standalone="no"?>
<!DOCTYPE svg PUBLIC "-//W3C//DTD SVG 20010904//EN"
 "http://www.w3.org/TR/2001/REC-SVG-20010904/DTD/svg10.dtd">
<svg version="1.0" xmlns="http://www.w3.org/2000/svg"
 width="1000.000000pt" height="1000.000000pt" viewBox="0 0 1000.000000 1000.000000"
 preserveAspectRatio="xMidYMid meet">
<metadata>
Created by potrace 1.16, written by Peter Selinger 2001-2019
</metadata>
<g transform="translate(0.000000,1000.000000) scale(0.100000,-0.100000)"
fill="currentColor" stroke="none">
<path d="M3284 9912 c-124 -83 -217 -138 -508 -302 -217 -122 -278 -165 -941
-659 -247 -184 -275 -209 -329 -289 -24 -37 -105 -127 -178 -200 -152 -151
-166 -173 -204 -327 -26 -104 -18 -706 11 -840 6 -28 64 -55 93 -44 27 10 72
100 72 144 0 80 66 319 99 360 11 15 21 33 21 39 0 11 87 56 109 56 16 0 15
-3 -22 -83 -57 -127 -43 -262 34 -320 56 -41 82 -11 104 124 20 126 50 212 99
284 23 33 62 105 86 160 l45 100 0 150 c0 166 0 167 71 240 59 60 158 115 374
206 41 17 102 46 135 65 187 103 467 169 827 194 228 16 256 1 367 -207 92
-172 292 -394 404 -449 l53 -26 51 -172 c28 -94 66 -239 83 -321 17 -83 41
-184 54 -225 27 -85 22 -109 -27 -132 -31 -15 -35 -14 -127 32 -52 26 -106 50
-120 53 -14 4 -71 38 -125 76 -55 39 -139 97 -186 130 l-86 60 -16 103 c-32
206 -74 296 -170 366 -313 230 -639 260 -1037 94 -69 -29 -96 -48 -145 -97
-33 -34 -86 -77 -118 -96 -98 -57 -142 -145 -112 -221 5 -13 0 -21 -18 -29
-49 -22 -57 -82 -36 -267 13 -119 54 -214 131 -305 29 -34 56 -64 59 -67 4 -3
46 -50 94 -105 97 -112 165 -161 234 -170 25 -4 55 -10 66 -15 11 -5 35 -13
53 -19 17 -5 54 -28 80 -51 26 -23 83 -57 127 -77 44 -20 87 -41 95 -48 8 -7
26 -15 40 -18 106 -24 262 -68 288 -81 18 -9 52 -19 77 -23 52 -7 54 -12 29
-105 -22 -86 -142 -364 -259 -603 -78 -158 -88 -212 -75 -420 10 -162 28 -263
65 -361 41 -107 53 -165 75 -359 12 -99 25 -193 30 -210 5 -16 18 -70 29 -118
12 -48 41 -132 65 -185 25 -53 59 -137 77 -187 65 -185 130 -292 231 -378 126
-108 258 -131 568 -97 96 10 212 22 258 26 l82 7 0 -38 c0 -21 -10 -54 -22
-74 -58 -96 -167 -253 -218 -316 -32 -38 -95 -126 -140 -195 -99 -148 -212
-300 -290 -390 -31 -36 -106 -132 -165 -215 -60 -82 -165 -224 -234 -314 -108
-142 -181 -248 -461 -666 -26 -38 -119 -212 -206 -385 -185 -365 -199 -408
-199 -580 1 -239 72 -342 287 -416 138 -48 255 -43 533 22 215 50 230 58 645
348 213 148 373 295 512 471 87 110 160 166 265 204 47 17 102 45 123 61 45
36 104 58 175 66 61 7 95 -2 214 -59 104 -49 169 -55 218 -18 30 22 35 23 76
11 46 -12 67 -12 242 10 217 26 405 -6 634 -110 155 -70 227 -123 352 -262
288 -320 451 -442 784 -590 161 -72 751 -238 846 -238 109 0 321 105 358 178
29 56 71 227 71 285 0 110 -59 296 -141 452 -32 61 -85 174 -118 253 -36 85
-86 182 -124 240 -35 53 -99 162 -141 240 -128 239 -281 469 -436 657 -362
440 -632 907 -828 1435 -42 113 -74 216 -81 265 -56 362 -290 1211 -486 1765
-113 318 -228 559 -450 941 -234 402 -256 438 -335 545 -37 50 -73 101 -80
113 -6 12 -44 58 -84 101 -132 144 -257 313 -440 598 -36 56 -77 124 -90 150
-14 26 -42 68 -63 93 -38 45 -72 97 -222 340 -189 307 -551 724 -851 980 -218
187 -255 219 -317 275 -70 62 -124 94 -163 94 -15 0 -77 -35 -156 -88z m870
-4862 c222 -257 311 -453 332 -729 l7 -91 -221 0 c-205 0 -222 1 -231 19 -14
25 -16 93 -7 246 9 160 -8 548 -28 630 -9 33 -15 66 -16 73 0 21 83 -55 164
-148z m1525 -3474 c31 -79 32 -85 18 -118 -43 -103 -194 -87 -190 20 1 42 54
167 75 175 50 20 63 10 97 -77z"/>
</g>
</svg>

