<?xml version="1.0" standalone="no"?>
<!DOCTYPE svg PUBLIC "-//W3C//DTD SVG 20010904//EN"
 "http://www.w3.org/TR/2001/REC-SVG-20010904/DTD/svg10.dtd">
<svg version="1.0" xmlns="http://www.w3.org/2000/svg"
 width="1000.000000pt" height="1000.000000pt" viewBox="0 0 1000.000000 1000.000000"
 preserveAspectRatio="xMidYMid meet">
<metadata>
Created by potrace 1.16, written by Peter Selinger 2001-2019
</metadata>
<g transform="translate(0.000000,1000.000000) scale(0.100000,-0.100000)"
fill="currentColor" stroke="none">
<path d="M5973 9987 c-12 -6 -38 -37 -58 -69 -39 -60 -55 -72 -55 -38 0 10 -9
24 -19 30 -25 13 -54 -47 -117 -245 -25 -77 -53 -165 -64 -195 -20 -63 -48
-208 -61 -325 -5 -44 -13 -107 -19 -140 -5 -33 -14 -96 -20 -140 -5 -44 -19
-136 -30 -205 -65 -414 -89 -704 -81 -985 2 -99 5 -382 6 -630 2 -283 7 -472
14 -510 15 -81 14 -131 -3 -148 -8 -7 -61 -21 -118 -31 -110 -18 -547 -108
-638 -131 -60 -15 -437 -92 -618 -125 -407 -76 -786 -202 -977 -325 -191 -124
-264 -199 -331 -340 -96 -204 -94 -374 10 -635 140 -352 361 -1445 411 -2035
23 -266 56 -427 138 -670 35 -103 94 -252 107 -270 9 -12 120 -292 120 -302 0
-20 99 -329 157 -493 77 -215 83 -270 44 -419 -45 -172 -14 -227 162 -287 51
-17 83 -37 121 -72 52 -49 255 -165 311 -177 17 -4 64 -17 105 -30 80 -25 135
-33 272 -40 51 -3 90 0 93 5 3 6 16 10 29 10 30 0 136 55 158 81 25 29 22 65
-4 84 -114 78 -180 133 -211 175 -21 28 -56 59 -80 71 -47 24 -112 76 -198
159 -32 30 -84 81 -117 112 -53 50 -72 81 -165 265 -162 322 -245 572 -282
853 -52 390 -67 485 -94 576 -50 166 -52 189 -55 441 -1 133 -1 241 0 240 1
-1 12 -56 24 -122 24 -139 67 -273 115 -365 240 -455 315 -728 244 -889 -65
-149 74 -214 273 -125 68 31 91 35 210 44 73 5 156 11 183 13 189 15 255 38
270 94 13 53 2 61 -88 61 -87 -1 -162 16 -252 58 -30 13 -59 24 -66 24 -23 0
-115 59 -136 88 -111 150 -173 371 -193 686 -6 94 -21 210 -39 297 -36 176
-41 399 -12 554 20 110 6 208 -65 450 -13 44 -26 105 -30 135 -13 110 -55 298
-93 410 -21 63 -41 141 -44 173 -3 32 -10 64 -15 70 -5 7 -16 36 -25 66 l-15
53 31 -5 c47 -8 287 -36 812 -92 148 -16 334 -46 408 -66 l37 -10 -5 -52 c-32
-333 -22 -542 35 -752 16 -60 39 -177 50 -258 12 -81 25 -160 31 -175 6 -14
10 -58 9 -97 0 -38 4 -203 10 -365 12 -340 16 -370 110 -720 26 -96 31 -129
28 -204 l-3 -89 -125 -118 c-69 -66 -129 -119 -135 -119 -34 0 -232 -94 -300
-142 -171 -121 -174 -127 -129 -297 84 -319 137 -399 288 -437 28 -7 76 -21
106 -30 70 -22 403 -25 525 -5 274 45 488 151 551 273 68 131 -43 573 -164
654 -53 36 -151 49 -271 35 -57 -7 -105 -11 -107 -8 -2 2 4 22 13 45 13 34 14
49 5 80 -6 20 -13 78 -16 127 -3 50 -10 143 -16 207 -17 180 -17 534 -1 679
11 103 12 145 1 230 -29 250 -29 257 -9 336 31 119 33 174 9 378 -25 215 -22
331 9 417 45 122 65 254 66 438 1 131 5 193 19 245 23 96 25 97 93 103 32 2
66 11 75 20 23 19 90 11 218 -26 98 -29 98 -29 130 -102 10 -25 95 -61 169
-73 134 -20 363 43 487 135 94 69 103 79 110 116 3 20 15 50 26 65 13 18 19
41 17 65 -2 20 3 48 10 61 12 22 11 51 -5 130 -18 88 -175 254 -295 311 -61
29 -70 30 -179 29 -141 -2 -321 -35 -327 -59 -3 -12 -33 -23 -102 -39 l-97
-22 -72 22 -72 23 0 135 c0 75 -4 165 -10 201 -6 36 -13 139 -16 230 -7 197
-22 260 -99 405 -52 99 -53 101 -59 210 -9 144 -22 248 -48 368 -16 79 -19
119 -14 200 3 56 8 154 12 218 7 122 -1 201 -53 504 -53 315 -8 747 81 769 32
8 126 116 160 184 19 37 37 57 62 69 43 21 44 55 2 86 -36 27 -74 15 -103 -31
-11 -17 -26 -31 -34 -29 -21 3 -52 123 -48 182 5 56 53 269 68 300 10 20 12
52 7 120 -1 17 5 51 12 77 13 43 12 49 -5 68 -20 22 -29 23 -62 7z"/>
</g>
</svg>

