<svg xmlns="http://www.w3.org/2000/svg" viewBox="957 189 2227 739"><path transform="matrix(1,0,0,-1,1734.5,669.1)" d="M0 0C1.2 26.5-4.7 50.9-17.7 73-30.8 95.1-47.4 115-67.6 132.7-87.7 150.4-107.9 166-128 179.3-147.8 192.7-167.9 205.6-188.3 218-200.3 225.5-212.2 233.1-224.2 240.8-229.3 244-234.7 247.4-240.5 250.9-252.8 258.1-265 266.1-277.1 274.7-289.3 283.4-299.3 292.9-307.3 303.4-329.7 210.5-352.8 117.9-376.6 25.3-377.8 21.6-380.3 18.3-384.1 15.2-387.8 12.1-391.3 9.6-394.5 7.6-394.8 7.4-395.8 6.9-397.4 6-399 5.1-400.8 4.2-402.8 3.3-404.8 2.5-406.5 2-407.9 2-409.3 1.9-409.8 2.5-409.5 3.9-398.9 45.3-388.4 86.8-378 128.2-381 125.1-384.3 122.2-387.7 119.4-391.2 116.5-393.8 114.7-395.7 113.9-398.8 112.9-401.9 111.7-405.1 110.5-448.1 94.2-490.7 76.7-533 57.9-575.3 39.1-615.5 16.8-653.7-9-666.8-17.7-680-27.8-693.5-39.2-707-50.7-718.6-63.5-728.1-77.6-737.6-91.7-742.7-107.3-743.5-124.3-743.3-143.5-736.9-159.7-724-173.1-711.2-186.4-696.5-196.8-680-204.2-654.5-215.5-627.6-223.2-599.3-227.3-571-231.4-542.4-233-513.4-232.1-484.5-231.3-456.5-229.3-429.5-226.3-340.2-216.4-254.2-194-171.5-159.1-147.7-149.5-123.1-137.9-97.6-124.1-72.1-110.3-50.1-93.3-31.6-73.2-13.2-53.1-2.6-28.7 0 0M-166.9 249.5C-159.7 245.1-152.4 240.5-145 235.9-123.1 222.7-101.1 208.6-79.2 193.5-57.2 178.4-37.3 161.5-19.3 142.8-1.4 124.2 12.7 102.9 22.8 79 33.2 52.6 35.4 27.7 29.3 4.4 23.3-18.9 12-40.4-4.5-59.8-21-79.3-39.7-96.5-60.5-111.4-95.8-136.7-133.8-158.2-174.4-175.9-215-193.5-256.1-208.2-297.9-220.1-343.6-233.4-390.3-243.3-437.9-249.8-485.6-256.2-533.3-258.3-581-256.2-596.9-255.6-615.3-253.8-636-250.9-656.7-248-677.2-243.1-697.3-236.3-717.5-229.5-734.8-219.7-749.2-207.2-763.7-194.6-772.5-178.3-775.7-158.4-777.7-138.4-773.5-119.8-762.9-102.4-752.4-85.1-740.3-69.7-726.5-56.4-695.6-26.3-661.6-.23-624.5 21.9-585.5 45.6-545.2 66.7-503.4 85.1-461.7 103.4-419.5 120.6-376.8 136.7-376.5 136.9-376.2 137-375.9 137.2H-375.7C-352.8 229-330.5 320.9-308.9 413-307.7 416.6-305.1 420-301.3 423.2-297.5 426.3-294 428.8-291 430.7-290.6 430.8-289.7 431.4-288.1 432.3-286.5 433.2-284.7 434.1-282.7 434.9-280.7 435.8-279 436.3-277.6 436.4-276.2 436.6-275.7 435.9-276 434.4-280.9 413.5-285.9 392.5-291 371.5-291.6 368.8-292.3 365.9-293 363-274.1 376-252.6 386.6-228.2 394.7-203.9 402.7-185.8 408.1-174 410.9-168 412.4-162.1 413.9-156.1 415.5-142.3 418.9-128.5 422.5-114.9 426.3-105.5 429.1-96.4 432.1-87.5 435.3-85.9 435.9-84.4 436.4-82.9 436.9-78.7 438.1-75 439.7-71.6 441.7-75.7 448.2-82.7 451.9-92.4 452.9-102.2 453.9-111.6 454.1-120.6 453.5-124.3 453.3-127.4 453.2-130.1 453.2-150.9 453.4-171.6 452.9-192.2 451.6-282.1 445.8-369.5 427.8-454.4 397.8-456.4 397.1-457.5 397.2-457.8 397.9-458.1 398.6-458 399.6-457.3 400.9-456.6 402.2-455.7 403.5-454.7 404.8-453.7 406.1-453 407-452.5 407.4-445.9 414.3-438.2 419.5-429.3 422.8-324.2 460-215.9 478.7-104.5 479-101.4 479-97.6 479.2-93 479.5-83.8 480.2-74.2 480.3-64.1 479.7-54.1 479.1-46.4 476.3-41.2 471.2-38 467-37.2 462.9-38.8 458.8-40.4 454.6-43 450.7-46.7 447-50.4 443.3-53.8 440.3-56.9 438-73 425.9-90.8 416.6-110.5 410-130.1 403.4-149.8 397.8-169.4 393.4-174.5 392.2-179.4 390.9-184.1 389.7-185.7 389.2-187.1 388.9-188.5 388.6-210.8 383.3-232.7 376.9-254.4 369.2-255.7 368.6-257.3 368.1-259 367.6-263.6 366.1-268.3 364.1-273.1 361.7-277.9 359.4-281.2 356.3-282.9 352.6-284.6 347.3-283.8 341.8-280.5 336.3-277.2 330.8-273.8 326.3-270.2 322.9-258 310.7-244.4 299.4-229.5 289.2-214.6 279-199.6 269.4-184.4 260.3-178.4 256.7-172.6 253.1-166.9 249.5"/><path transform="matrix(1,0,0,-1,1854.2,534.3)" d="M0 0C3.6 3 7.2 6.7 10.7 11.2 14.2 15.7 17.2 20.3 19.9 25.1 22.5 29.9 24.5 34.4 25.9 38.5 27.2 42.7 27.5 45.8 26.9 47.7 25.5 51.4 22.4 53.2 17.4 53.2 10.8 53.2 2.5 50.1-7.5 44-17.4 37.9-26 30-33.3 20.4-35.3 17.7-37.5 14.4-39.8 10.4-42.1 6.5-44.3 2.5-46.3-1.5-48.2-5.5-49.9-9.1-51.2-12.4-52.6-15.8-53.2-18.1-53.2-19.4-53.2-20.7-51.7-21.4-48.7-21.4-40.5-21.4-31.8-19.1-22.9-14.4-13.9-9.8-6.3-5 0 0M16.9 75.1C23.5 75.4 28.3 74.9 31.3 73.6 34.3 72.3 37.5 69.6 40.8 65.6 46.1 59.7 48.7 53.3 48.7 46.5 48.7 39.7 46.1 30.7 40.8 19.4 37.5 11.8 32.7 4.6 26.6-2.2 20.5-9 13.8-15 6.5-20.1-.831-25.3-8.5-29.3-16.7-32.3-24.8-35.3-32.7-36.8-40.3-36.8L-56.7-37.3V-51.2C-56.7-67.5-51.3-79.8-40.5-88.3-29.8-96.7-13.9-100.8 7-100.5 15.2-100.5 23.1-99.8 30.6-98.5 38-97.2 46.4-95 55.7-92 65-89 75.9-84.8 88.5-79.3 101.1-73.9 116.5-66.8 134.8-58.2 154.3-48.9 168.9-42.2 178.6-38 188.2-33.9 194.6-31.8 197.9-31.8 200.3-31.8 201.4-32.8 201.4-34.8 201.4-36.5 199.8-39 196.5-42.3 193.1-45.6 188.6-49.3 182.8-53.5 177-57.6 170.3-62.1 162.9-66.9 155.4-71.7 147.5-76.4 139.3-81.1 111.1-97 86-108.7 64.2-116.1 42.3-123.6 22-127.3 3.5-127.3-16.4-127.3-34.4-122.5-50.5-112.9-66.6-103.3-76.9-87.7-81.6-66.2-84.9-50.2-84.3-34-79.8-17.4-75.4-.833-68.4 14.3-58.9 28.1-49.5 41.9-38 53.1-24.6 61.9-11.2 70.7 2.6 75.1 16.9 75.1"/><path transform="matrix(1,0,0,-1,2104.5,733.5)" d="M0 0C.661-4.6 1.6-9.9 2.7-15.9 3.9-21.9 5-26.5 6-29.8L10.4-42.3 11.4-27.4C11.8-22.7 11.4-17.7 10.4-12.4 9.4-7.1 7.6-2.2 5 2.5L-2 17.9ZM-57.7 112.4C-50.7 106.4-44.5 101.3-39 97-33.6 92.7-30.5 90.5-29.8 90.5-29.2 90.5-28.5 93.1-27.9 98.2-27.2 103.4-26.7 109.7-26.4 117.4L-24.9 144.2-50.7 142.7C-58 142.1-64.6 141.2-70.4 140.3-76.2 139.3-79.4 138.4-80.1 137.8-82.7 135.1-75.3 126.7-57.7 112.4M-106.9 144.7C-105.3 150.4-99.5 155.1-89.8 158.9-80 162.7-66.6 165.5-49.7 167.1-42.1 167.8-36.4 168.3-32.6 168.6-28.8 168.9-25.9 170.4-24.1 173.1-22.3 175.7-20.9 180.2-19.9 186.5-18.9 192.8-17.6 202.1-15.9 214.4-14.9 220.7-13.3 231.4-10.9 246.7-8.6 261.9-5.6 279.2-1.7 298.4 2.1 317.6 6.5 337.7 11.7 358.6 16.8 379.5 22.8 398.6 29.6 415.8 36.4 433 43.8 447.2 52 458.3 60.1 469.4 68.8 475 78.1 475 87.7 475 95.8 469 102.5 457.1 109.1 445.1 111.7 429.2 110.4 409.3 109.7 401.7 108.4 394 106.4 386.2 104.4 378.4 102 371.4 99 365.1 96 358.8 92.8 353.5 89.5 349.4 86.2 345.2 82.9 342.8 79.6 342.2 75.9 341.5 73.8 341.6 73.1 342.4 72.4 343.3 72.8 345 74.1 347.7 79.7 361.6 84.1 374.8 87.3 387.4 90.4 400 92.2 411.1 92.5 420.5 92.8 430 91.8 437.7 89.5 443.6 87.2 449.6 83.6 453.1 78.6 454.1 76.6 454.4 73.9 452.2 70.4 447.4 66.9 442.6 63.2 436.1 59.4 428 55.6 419.9 51.9 410.7 48.2 400.6 44.6 390.5 41.4 380.1 38.8 369.5 36.1 358.9 33.1 345.2 29.6 328.5 26.1 311.8 22.8 294.7 19.6 277.3 16.5 259.9 13.7 243.5 11.2 228.3 8.7 213 7.1 201.4 6.5 193.5L4 170.1 78.1 171.1H120.4C130.3 171.1 137.3 170.9 141.5 170.6 145.6 170.3 147.5 169.7 147.2 168.9 146.9 168 145.7 166.8 143.7 165.1 138.1 160.1 128.1 156.4 113.6 153.9 99.2 151.4 78.1 149.5 50.2 148.2L2 145.7 0 136.8C-.667 134.1-1.2 128.8-1.7 120.9-2.2 112.9-2.5 104.6-2.5 96-2.8 88-3 81.7-3 77.1-3 72.5-2.6 68.6-1.7 65.4-.916 62.3 .327 59.1 2 56 3.6 52.8 6.1 48.7 9.4 43.8 13.4 37.8 16.7 32.6 19.1 28.1 21.6 23.6 23.8 19.3 25.6 15.2 27.4 11 28.9 6.8 30.1 2.5 31.2-1.8 32.3-6.8 33.3-12.4 35.3-22.7 35.2-32.7 33.1-42.3 30.9-51.9 27.4-58.7 22.4-62.7 17.4-66.6 13.4-68.6 10.4-68.6 7.5-68.6 2.8-66.3-3.5-61.7-9.4-57-14.3-48.1-17.9-34.8-21.6-21.6-24.5-3-26.9 20.9-27.9 31.8-28.8 40.4-29.6 46.5-30.4 52.6-32.3 58.2-35.3 63.2-38.3 68.1-42.9 73.4-49 78.8-55.1 84.3-64 92-75.6 102-83.6 108.6-89.8 114-94.2 118.1-98.7 122.3-102 125.8-104.2 128.8-106.3 131.8-107.5 134.5-107.7 136.8-107.8 139.1-107.6 141.7-106.9 144.7"/><path transform="matrix(1,0,0,-1,2332.8,534.5)" d="M0 0C7-6 11.8-8.9 14.4-8.9 17.7-8.9 18.7-3.5 17.4 7.5 15.7 21.1 12.2 31.7 6.7 39.3 1.2 46.9-4.8 49.9-11.4 48.2-15.4 47.2-18.1 44.9-19.4 41.3-20.7 37.6-20.8 33.5-19.6 28.8-18.5 24.2-16.3 19.3-12.9 14.2-9.6 9-5.3 4.3 0 0M-71.6-90.5C-65-97.5-58.4-101-51.7-101-45.1-101-37.6-98.7-29.3-94.3-21.1-89.8-14.6-85.4-9.9-81.1-7.3-78.8-4.6-75.7-2-71.9 .661-68.1 3.2-64.2 5.7-60.4 8.2-56.6 10.2-53 11.7-49.5 13.2-46 13.9-43.4 13.9-41.8 13.9-40.8 12.4-39.1 9.4-36.8 6.5-34.5 2.6-32-2-29.3-11.6-23.4-20.1-15.9-27.6-7-35.1 2-39.6 10.4-41.3 18.4L-43.8 30.8-50.7 21.9C-54.4 17.6-57.9 12.3-61.4 6-64.9-.331-68-7-70.6-14.2-73.3-21.3-75.5-28.4-77.3-35.6-79.2-42.7-80.4-49.4-81.1-55.7-81.4-61.7-81.6-66.3-81.6-69.6-81.6-73-81.3-75.7-80.8-77.8-80.3-80-79.3-82-77.8-83.8-76.3-85.6-74.3-87.9-71.6-90.5M-59.7 34.8C-55.4 38.5-50.7 42.5-45.5 47-40.4 51.5-36.3 55.2-33.3 58.2-25.7 64.8-17.7 68.1-9.5 68.1-3.2 68.1 2.9 66.3 8.7 62.7 14.5 59 19.6 54 24.1 47.5 28.6 41 32.2 33.3 34.8 24.4 37.5 15.4 38.8 5.6 38.8-5 38.8-11.9 39.5-16.1 40.8-17.4 42.1-18.7 46.9-20.1 55.2-21.4 59.8-22.1 67.7-22.6 78.8-23.1 89.9-23.6 101.1-23.9 112.4-23.9 133.6-24.2 148.5-25 156.9-26.1 165.4-27.3 169.9-29.3 170.6-32.3 171.2-35.6 165.4-38.1 153.2-39.8 140.9-41.5 120.4-42.6 91.5-43.3L33.3-44.8 28.8-58.7C26.5-65.7 22.5-72.9 16.7-80.3 10.9-87.8 4.3-94.6-3-100.7-10.3-106.9-18.2-111.9-26.6-115.9-35.1-119.9-43.3-121.9-51.2-121.9-55.5-121.9-60.7-121.4-66.6-120.4-72.6-119-79-114.5-85.8-106.7-92.6-98.9-97.3-90.9-100-82.6-102.3-74.3-102.8-64.7-101.5-54-100.1-43.2-97.6-32.2-94-21.1-90.4-10-85.5 .497-79.6 10.4-73.6 20.4-67 28.5-59.7 34.8"/><path transform="matrix(1,0,0,-1,2475.1,472.4)" d="M0 0C1.3 3.6 3.6 5.5 7 5.5 10.3 5.5 12.4 3.6 13.4 0 14.1-1.7 14.8-8.4 15.7-20.1 16.5-31.9 17.2-45.4 17.9-60.7L20.4-114.9 28.4-96.5C47.2-49.7 63.8-26.4 78.1-26.4 84.7-26.4 91.5-30.7 98.5-39.3 106.1-48.2 113.1-55.7 119.4-61.7 125.7-67.6 132.2-72.5 139-76.1 145.8-79.8 153.3-82.5 161.4-84.3 169.5-86.1 179.1-87.5 190-88.5 200.9-89.9 207.3-91.4 209.1-93 211-94.7 208.7-97.3 202.4-101 197.1-103.6 189.5-104.9 179.5-104.9 173.2-104.9 166.4-104.4 158.9-103.2 151.4-102 144.1-100.5 136.8-98.5 125.8-95.5 116.4-90.8 108.4-84.3 100.5-77.8 91.5-67.1 81.6-52.2L74.6-42.8 67.6-51.2C63-57.2 58.4-64.7 53.7-73.9 49.1-83 44.8-92.9 40.8-103.7 36.8-114.5 33.2-125.9 30.1-138 26.9-150.1 24.5-162.1 22.9-174.1 19.6-196.6 15.2-207.9 9.9-207.9 8.3-207.9 6.3-206.7 4-204.4 2.7-203.4 1.7-201.4 .994-198.5 .327-195.5-.249-190.4-.746-183.3-1.2-176.2-1.6-166.1-1.7-153.2-1.9-140.3-2-123.2-2-102-2-88.7-1.9-76-1.7-63.9-1.6-51.8-1.4-41.2-1.2-32.1-1.1-23-.916-15.5-.746-9.7-.58-3.9-.331-.672 0 0"/><path transform="matrix(1,0,0,-1,2744.6,535.5)" d="M0 0C3.6 3 7.2 6.7 10.7 11.2 14.2 15.7 17.2 20.3 19.9 25.1 22.5 29.9 24.5 34.4 25.9 38.5 27.2 42.7 27.5 45.8 26.9 47.7 25.5 51.4 22.4 53.2 17.4 53.2 10.8 53.2 2.5 50.1-7.5 44-17.4 37.9-26 30-33.3 20.4-35.3 17.7-37.5 14.4-39.8 10.4-42.1 6.5-44.3 2.5-46.3-1.5-48.2-5.5-49.9-9.1-51.2-12.4-52.6-15.8-53.2-18.1-53.2-19.4-53.2-20.7-51.7-21.4-48.7-21.4-40.5-21.4-31.8-19.1-22.9-14.4-13.9-9.8-6.3-5 0 0M16.9 75.1C23.5 75.4 28.3 74.9 31.3 73.6 34.3 72.3 37.5 69.6 40.8 65.7 46.1 59.7 48.7 53.3 48.7 46.5 48.7 39.7 46.1 30.7 40.8 19.4 37.5 11.8 32.7 4.6 26.6-2.2 20.5-9 13.8-15 6.5-20.1-.833-25.3-8.5-29.3-16.7-32.3-24.8-35.3-32.7-36.8-40.3-36.8L-56.7-37.3V-51.2C-56.7-67.5-51.3-79.8-40.5-88.3-29.8-96.7-13.9-100.8 7-100.5 15.2-100.5 23.1-99.8 30.6-98.5 38-97.2 46.4-95 55.7-92 65-89 75.9-84.8 88.5-79.3 101.1-73.9 116.5-66.8 134.8-58.2 154.3-48.9 168.9-42.2 178.6-38 188.2-33.9 194.6-31.8 197.9-31.8 200.3-31.8 201.4-32.8 201.4-34.8 201.4-36.5 199.8-39 196.5-42.3 193.1-45.6 188.6-49.3 182.8-53.5 177-57.6 170.3-62.1 162.9-66.9 155.4-71.7 147.5-76.4 139.3-81.1 111.1-97 86-108.7 64.2-116.1 42.3-123.6 22-127.3 3.5-127.3-16.4-127.3-34.4-122.5-50.5-112.9-66.6-103.3-76.9-87.7-81.6-66.2-84.9-50.2-84.3-34-79.8-17.4-75.3-.833-68.4 14.3-58.9 28.1-49.5 41.9-38 53.1-24.6 61.9-11.2 70.7 2.7 75.1 16.9 75.1"/><path transform="matrix(1,0,0,-1,2971.3,510.7)" d="M0 0C.658 3.6 2.2 6.4 4.7 8.4 7.2 10.4 11.9 12.2 18.8 13.9 24.1 15.2 33.2 16.6 46.3 18.1 59.3 19.6 73.6 21 89.1 22.3 104.6 23.6 120.1 24.7 135.6 25.5 151.1 26.3 163.8 26.7 173.7 26.7 180.7 26.7 187 26.5 192.8 26 198.6 25.5 203.1 24.7 206.4 23.8 209.7 22.8 211.6 21.8 212.1 20.8 212.6 19.8 211.2 18.8 207.9 17.8 206.6 17.5 202 16.7 194 15.3 186.1 14 176.4 12.5 164.8 10.9 153.3 9.2 140.7 7.5 127 5.7 113.3 3.9 100 2.1 87.1 .493 74.2-1.2 62.4-2.6 51.7-4 41-5.3 32.8-6.1 27.2-6.4 20-7.1 14.4-7.5 10.6-7.7 6.8-7.8 4-7.8 2.2-7.4 .41-7.1-.497-6.4-.497-5.2-.497-4-.332-2.3 0 0"/></svg>